<?xml version="1.0" standalone="no"?>
<svg
  width="600"
  height="600"
  viewBox="0 0 600 600"
  xmlns="http://www.w3.org/2000/svg"
>
  <g transform="translate(300,300)">
    <path d="M137.8,-206.1C176.4,-189.5,204.2,-147.7,227.9,-102.2C251.6,-56.7,271.3,-7.4,253.6,28.4C235.8,64.1,180.6,86.4,143.2,117.2C105.8,148,86.1,187.2,55.4,202.7C24.6,218.1,-17.3,209.8,-62.1,201.3C-107,192.8,-154.7,184.2,-179.7,155.6C-204.6,127,-206.7,78.5,-215.4,29.9C-224.1,-18.8,-239.4,-67.5,-227.6,-108.3C-215.8,-149.1,-176.8,-181.8,-134.4,-196.6C-91.9,-211.3,-46,-208.2,1.8,-211C49.6,-213.8,99.1,-222.6,137.8,-206.1Z" fill="#274690" />
  </g>
</svg>
    