<?xml version="1.0" standalone="no"?>
<svg
  width="600"
  height="600"
  viewBox="0 0 600 600"
  xmlns="http://www.w3.org/2000/svg"
>
  <g transform="translate(300,300)">
    <path d="M106.1,-151.3C130.4,-106.1,138.1,-65.9,134.1,-32C130.1,1.9,114.4,29.4,102,66.3C89.5,103.2,80.3,149.3,53.5,168.3C26.7,187.3,-17.8,179.2,-52.4,159.8C-87.1,140.3,-112,109.7,-137.5,74.8C-163.1,40,-189.4,1,-193,-43.7C-196.7,-88.4,-177.7,-138.8,-141.8,-182C-105.8,-225.1,-52.9,-261.1,-6,-253.9C40.9,-246.8,81.8,-196.5,106.1,-151.3Z" fill="#b6d094" />
  </g>
</svg>
    